<svg width="40" height="40" viewBox="0 0 40 40" fill="none" xmlns="http://www.w3.org/2000/svg">
<rect width="40" height="40" rx="4.92958" fill="#1241FF"/>
<path d="M30.9531 15.5131L31.1729 15.7181C31.7003 16.2127 32 16.9043 32 17.6273V21.9213H29.7764C24.72 21.9213 20.6211 17.8224 20.6211 12.766V5.97986L30.9531 15.5131Z" fill="white"/>
<path d="M19.3135 12.766C19.3135 17.8224 15.2146 21.9213 10.1582 21.9213H7.93359V17.6381C7.93366 16.9086 8.23871 16.2123 8.77441 15.7172L19.3135 5.97986V12.766Z" fill="white"/>
<path d="M32 31.4033C32 32.8479 30.8284 34.0194 29.3838 34.0195H20.6211V32.3847C20.6211 27.3283 24.72 23.2294 29.7764 23.2294H32V31.4033Z" fill="white"/>
<path d="M10.1582 23.2294C15.2144 23.2296 19.3134 27.3285 19.3135 32.3847V34.0195H10.5508C9.10623 34.0195 7.93478 32.8487 7.93457 31.4042V23.2294H10.1582Z" fill="white"/>
</svg>
