<svg width="164" height="40" viewBox="0 0 164 40" fill="none" xmlns="http://www.w3.org/2000/svg">
<rect width="40" height="40" rx="4.92958" fill="#1241FF"/>
<path d="M30.9531 15.5131L31.1729 15.7181C31.7003 16.2127 32 16.9043 32 17.6273V21.9213H29.7764C24.72 21.9213 20.6211 17.8224 20.6211 12.766V5.97986L30.9531 15.5131Z" fill="white"/>
<path d="M19.3135 12.766C19.3135 17.8224 15.2146 21.9213 10.1582 21.9213H7.93359V17.6381C7.93366 16.9086 8.23871 16.2123 8.77441 15.7172L19.3135 5.97986V12.766Z" fill="white"/>
<path d="M32 31.4033C32 32.8479 30.8284 34.0194 29.3838 34.0195H20.6211V32.3847C20.6211 27.3283 24.72 23.2294 29.7764 23.2294H32V31.4033Z" fill="white"/>
<path d="M10.1582 23.2294C15.2144 23.2296 19.3134 27.3285 19.3135 32.3847V34.0195H10.5508C9.10623 34.0195 7.93478 32.8487 7.93457 31.4042V23.2294H10.1582Z" fill="white"/>
<path d="M51.5949 31.5L60.7437 13.08H52.6712V9.48409H66.6391L57.4903 27.9041H66.1499V31.5H51.5949ZM75.3553 31.8425C74.018 31.8425 72.7949 31.5 71.686 30.8151C70.577 30.1138 69.6882 29.1843 69.0196 28.0264C68.3673 26.8522 68.0411 25.5639 68.0411 24.1614C68.0411 22.7589 68.3673 21.4787 69.0196 20.3208C69.6882 19.1466 70.577 18.2171 71.686 17.5321C72.7949 16.8309 74.018 16.4803 75.3553 16.4803C76.3174 16.4803 77.2062 16.6515 78.0216 16.994C78.837 17.3364 79.5301 17.8175 80.1009 18.4372V16.8227H83.4522V31.5H80.1009V29.8855C79.5301 30.4889 78.837 30.97 78.0216 31.3288C77.2062 31.6712 76.3174 31.8425 75.3553 31.8425ZM75.82 28.4422C76.6028 28.4422 77.3041 28.2465 77.9238 27.8551C78.5598 27.4637 79.0654 26.95 79.4404 26.314C79.8155 25.6617 80.0031 24.9442 80.0031 24.1614C80.0031 23.3786 79.8155 22.6692 79.4404 22.0332C79.0654 21.3808 78.5598 20.859 77.9238 20.4676C77.3041 20.0762 76.611 19.8805 75.8445 19.8805C75.0617 19.8805 74.3523 20.0762 73.7163 20.4676C73.0966 20.859 72.5992 21.3808 72.2241 22.0332C71.849 22.6692 71.6615 23.3786 71.6615 24.1614C71.6615 24.9442 71.849 25.6617 72.2241 26.314C72.5992 26.95 73.0966 27.4637 73.7163 27.8551C74.3523 28.2465 75.0536 28.4422 75.82 28.4422ZM87.0803 31.5V16.8227H90.5294V18.5595C91.0676 17.842 91.7281 17.3038 92.5109 16.945C93.2936 16.57 94.1172 16.3824 94.9815 16.3824C95.8785 16.3824 96.7183 16.5781 97.5011 16.9695C98.2839 17.3446 98.9362 17.8991 99.4581 18.6329C100.029 17.8991 100.746 17.3446 101.611 16.9695C102.475 16.5781 103.405 16.3824 104.399 16.3824C105.459 16.3824 106.446 16.627 107.359 17.1163C108.273 17.6055 109.015 18.3149 109.585 19.2445C110.156 20.174 110.442 21.2911 110.442 22.5958V31.5H106.577V23.134C106.577 22.2044 106.307 21.4298 105.769 20.8101C105.247 20.1903 104.538 19.8805 103.641 19.8805C103.136 19.8805 102.654 19.9946 102.198 20.223C101.741 20.4513 101.374 20.8019 101.097 21.2748C100.82 21.7478 100.681 22.3512 100.681 23.085V31.5H96.8162V23.134C96.8162 22.5142 96.6939 21.9598 96.4493 21.4705C96.2046 20.965 95.8622 20.5736 95.4219 20.2963C94.9815 20.0028 94.4678 19.856 93.8807 19.856C93.3915 19.856 92.9186 19.9783 92.4619 20.223C92.0053 20.4513 91.6302 20.8019 91.3367 21.2748C91.0594 21.7478 90.9208 22.3512 90.9208 23.085V31.5H87.0803ZM121.177 31.9403C119.562 31.9403 118.127 31.5978 116.871 30.9129C115.632 30.228 114.662 29.2903 113.96 28.0998C113.275 26.893 112.933 25.5312 112.933 24.0146C112.933 22.5632 113.267 21.2667 113.936 20.1251C114.621 18.9672 115.542 18.054 116.7 17.3854C117.858 16.7167 119.138 16.3824 120.541 16.3824C121.976 16.3824 123.256 16.7167 124.381 17.3854C125.523 18.0377 126.428 18.9265 127.096 20.0517C127.765 21.177 128.099 22.4572 128.099 23.8923V25.2866H118.975C118.567 25.2866 118.168 25.2622 117.776 25.2132C117.385 25.1643 116.994 25.1072 116.602 25.042C116.798 26.102 117.312 26.9745 118.143 27.6594C118.975 28.3444 120.019 28.6869 121.274 28.6869C122.204 28.6869 123.044 28.4912 123.794 28.0998C124.544 27.7084 125.164 27.2191 125.653 26.632L126.534 30.228C125.8 30.7988 124.976 31.2228 124.063 31.5C123.15 31.7935 122.188 31.9403 121.177 31.9403ZM116.504 22.6692C117.336 22.5061 118.16 22.4246 118.975 22.4246H122.131C122.571 22.4246 122.987 22.4409 123.378 22.4735C123.77 22.5061 124.145 22.555 124.503 22.6202C124.259 21.6744 123.778 20.9161 123.06 20.3453C122.359 19.7745 121.511 19.4891 120.516 19.4891C119.538 19.4891 118.69 19.7826 117.972 20.3697C117.255 20.9568 116.765 21.7233 116.504 22.6692ZM138.17 31.9403C136.556 31.9403 135.121 31.5978 133.865 30.9129C132.625 30.228 131.655 29.2903 130.954 28.0998C130.269 26.893 129.926 25.5312 129.926 24.0146C129.926 22.5632 130.261 21.2667 130.929 20.1251C131.614 18.9672 132.536 18.054 133.694 17.3854C134.851 16.7167 136.132 16.3824 137.534 16.3824C138.969 16.3824 140.249 16.7167 141.375 17.3854C142.516 18.0377 143.421 18.9265 144.09 20.0517C144.759 21.177 145.093 22.4572 145.093 23.8923V25.2866H135.969C135.561 25.2866 135.161 25.2622 134.77 25.2132C134.379 25.1643 133.987 25.1072 133.596 25.042C133.791 26.102 134.305 26.9745 135.137 27.6594C135.969 28.3444 137.012 28.6869 138.268 28.6869C139.198 28.6869 140.037 28.4912 140.788 28.0998C141.538 27.7084 142.158 27.2191 142.647 26.632L143.527 30.228C142.794 30.7988 141.97 31.2228 141.057 31.5C140.143 31.7935 139.181 31.9403 138.17 31.9403ZM133.498 22.6692C134.33 22.5061 135.153 22.4246 135.969 22.4246H139.124C139.565 22.4246 139.98 22.4409 140.372 22.4735C140.763 22.5061 141.138 22.555 141.497 22.6202C141.252 21.6744 140.771 20.9161 140.054 20.3453C139.353 19.7745 138.504 19.4891 137.51 19.4891C136.531 19.4891 135.683 19.7826 134.966 20.3697C134.248 20.9568 133.759 21.7233 133.498 22.6692ZM147.727 31.5V16.8227H151.176V18.6329C151.715 17.8991 152.375 17.3446 153.158 16.9695C153.941 16.5781 154.789 16.3824 155.702 16.3824C156.746 16.3824 157.716 16.6352 158.613 17.1407C159.526 17.6463 160.26 18.3801 160.814 19.3423C161.369 20.2882 161.646 21.4461 161.646 22.8159V31.5H157.806V23.3297C157.806 22.4164 157.537 21.6091 156.998 20.9079C156.46 20.2067 155.694 19.856 154.699 19.856C153.884 19.856 153.158 20.1414 152.522 20.7122C151.886 21.2667 151.568 22.1147 151.568 23.2563V31.5H147.727Z" fill="black"/>
</svg>
